<svg xmlns="http://www.w3.org/2000/svg" xmlns:xlink="http://www.w3.org/1999/xlink" width="500" zoomAndPan="magnify" viewBox="0 0 375 374.999991" height="500" preserveAspectRatio="xMidYMid meet" version="1.0"><defs><clipPath id="3a14ab1d98"><path d="M 37.5 36.96875 L 338.03125 36.96875 L 338.03125 337.5 L 37.5 337.5 Z M 37.5 36.96875 " clip-rule="nonzero"/></clipPath><clipPath id="361afeacde"><path d="M 45.75 36.96875 L 329.78125 36.96875 C 334.339844 36.96875 338.03125 40.660156 338.03125 45.21875 L 338.03125 329.25 C 338.03125 333.804688 334.339844 337.5 329.78125 337.5 L 45.75 337.5 C 41.195312 337.5 37.5 333.804688 37.5 329.25 L 37.5 45.21875 C 37.5 40.660156 41.195312 36.96875 45.75 36.96875 Z M 45.75 36.96875 " clip-rule="nonzero"/></clipPath><clipPath id="f45502e3db"><path d="M 0.5 0.96875 L 301.03125 0.96875 L 301.03125 301.5 L 0.5 301.5 Z M 0.5 0.96875 " clip-rule="nonzero"/></clipPath><clipPath id="a79da31bbc"><path d="M 8.75 0.96875 L 292.78125 0.96875 C 297.339844 0.96875 301.03125 4.660156 301.03125 9.21875 L 301.03125 293.25 C 301.03125 297.804688 297.339844 301.5 292.78125 301.5 L 8.75 301.5 C 4.195312 301.5 0.5 297.804688 0.5 293.25 L 0.5 9.21875 C 0.5 4.660156 4.195312 0.96875 8.75 0.96875 Z M 8.75 0.96875 " clip-rule="nonzero"/></clipPath><clipPath id="cbdc31e070"><rect x="0" width="302" y="0" height="302"/></clipPath><clipPath id="8139df3e7b"><path d="M 168.636719 54.324219 L 206.136719 54.324219 L 206.136719 320.574219 L 168.636719 320.574219 Z M 168.636719 54.324219 " clip-rule="nonzero"/></clipPath><clipPath id="347ac64aee"><path d="M 87 87 L 288 87 L 288 288 L 87 288 Z M 87 87 " clip-rule="nonzero"/></clipPath><clipPath id="5777c74575"><path d="M 294.84375 106.507812 L 106.578125 294.773438 L 80.0625 268.257812 L 268.328125 79.992188 Z M 294.84375 106.507812 " clip-rule="nonzero"/></clipPath><clipPath id="b834c59092"><path d="M 294.84375 106.507812 L 106.578125 294.773438 L 80.0625 268.257812 L 268.328125 79.992188 Z M 294.84375 106.507812 " clip-rule="nonzero"/></clipPath><clipPath id="bec75b3da1"><path d="M 87 87 L 288 87 L 288 287 L 87 287 Z M 87 87 " clip-rule="nonzero"/></clipPath><clipPath id="37da7b0956"><path d="M 268.484375 294.574219 L 80.21875 106.308594 L 106.734375 79.789062 L 295.003906 268.058594 Z M 268.484375 294.574219 " clip-rule="nonzero"/></clipPath><clipPath id="e88602c1d9"><path d="M 268.484375 294.574219 L 80.21875 106.308594 L 106.734375 79.789062 L 295.003906 268.058594 Z M 268.484375 294.574219 " clip-rule="nonzero"/></clipPath></defs><rect x="-37.5" width="450" fill="#ffffff" y="-37.499999" height="449.999989" fill-opacity="1"/><rect x="-37.5" width="450" fill="#ffffff" y="-37.499999" height="449.999989" fill-opacity="1"/><g clip-path="url(#3a14ab1d98)"><g clip-path="url(#361afeacde)"><g transform="matrix(1, 0, 0, 1, 37, 36)"><g clip-path="url(#cbdc31e070)"><g clip-path="url(#f45502e3db)"><g clip-path="url(#a79da31bbc)"><path fill="#ffffff" d="M 0.5 0.96875 L 301.03125 0.96875 L 301.03125 301.5 L 0.5 301.5 Z M 0.5 0.96875 " fill-opacity="1" fill-rule="nonzero"/></g></g></g></g></g></g><g clip-path="url(#8139df3e7b)"><path fill="#0000ff" d="M 168.910156 302.078125 L 168.910156 72.914062 C 168.910156 62.636719 177.222656 54.324219 187.5 54.324219 C 197.773438 54.324219 206.089844 62.636719 206.089844 72.914062 L 206.089844 302.078125 C 206.089844 312.351562 197.773438 320.667969 187.5 320.667969 C 177.222656 320.667969 168.910156 312.351562 168.910156 302.078125 Z M 168.910156 302.078125 " fill-opacity="1" fill-rule="nonzero"/></g><g clip-path="url(#347ac64aee)"><g clip-path="url(#5777c74575)"><g clip-path="url(#b834c59092)"><path fill="#0000ff" d="M 93.332031 255.371094 L 255.375 93.328125 C 262.640625 86.0625 274.398438 86.0625 281.664062 93.328125 C 288.929688 100.59375 288.929688 112.351562 281.664062 119.617188 L 119.621094 281.660156 C 112.355469 288.925781 100.597656 288.925781 93.332031 281.660156 C 86.066406 274.394531 86.066406 262.636719 93.332031 255.371094 Z M 93.332031 255.371094 " fill-opacity="1" fill-rule="nonzero"/></g></g></g><g clip-path="url(#bec75b3da1)"><g clip-path="url(#37da7b0956)"><g clip-path="url(#e88602c1d9)"><path fill="#0000ff" d="M 119.621094 93.0625 L 281.664062 255.105469 C 288.929688 262.371094 288.929688 274.128906 281.664062 281.394531 C 274.398438 288.660156 262.640625 288.660156 255.375 281.394531 L 93.332031 119.351562 C 86.066406 112.085938 86.066406 100.328125 93.332031 93.0625 C 100.597656 85.796875 112.355469 85.796875 119.621094 93.0625 Z M 119.621094 93.0625 " fill-opacity="1" fill-rule="nonzero"/></g></g></g></svg>